<?xml version="1.0" standalone="no"?><!DOCTYPE svg PUBLIC "-//W3C//DTD SVG 1.1//EN" "http://www.w3.org/Graphics/SVG/1.1/DTD/svg11.dtd"><svg class="icon" width="200px" height="200.00px" viewBox="0 0 1024 1024" version="1.1" xmlns="http://www.w3.org/2000/svg"><path d="M432.324267 503.466667 432.324267 0 332.885333 0 332.885333 503.466667 297.1392 503.466667 297.1392 1006.933333 496.042667 1006.933333 496.042667 503.466667Z"  /><path d="M704.785067 503.466667 704.785067 0 605.3376 0 605.3376 503.466667 541.6192 503.466667 541.6192 1006.933333 740.522667 1006.933333 740.522667 503.466667Z"  /><path d="M187.8528 503.466667l0-27.972267 0-37.0944L187.8528 0 48 0l0 475.4944 0 88.567467 0 1.5616 0 46.6176 0 332.535467c0 34.3296 29.141333 62.1568 65.066667 62.1568l39.04 0 39.04 0 65.066667 0 0-62.1568 0-74.581333L256.213333 612.241067l0-46.6176L256.213333 503.466667 187.8528 503.466667z"  /><path d="M849.8176 0l0 475.4944L849.066667 475.4944 849.066667 503.466667l-67.626667 0 0 62.1568 0 46.6176 0 257.954133 0 74.581333L781.44 1006.933333l65.0752 0 39.04 0 39.04 0c35.933867 0 65.066667-27.8272 65.066667-62.1568L989.661867 612.241067l0-46.6176 0-1.5616L989.661867 475.4944 989.661867 0 849.8176 0z"  /></svg>