<?xml version="1.0" encoding="utf-8"?>
<!-- Generator: Adobe Illustrator 21.0.0, SVG Export Plug-In . SVG Version: 6.00 Build 0)  -->
<svg version="1.1" id="Layer_1" xmlns="http://www.w3.org/2000/svg" xmlns:xlink="http://www.w3.org/1999/xlink" x="0px" y="0px"
	 viewBox="0 0 99.2 200" style="enable-background:new 0 0 99.2 200;" xml:space="preserve">
<style type="text/css">
	.st0{fill:#FF0000;}
</style>
<path d="M81,44.2c-2.6,6.1-6.5,11.6-11.4,16.1c-0.9,0.8-1.8,1.5-2.7,2.3c-0.4,3.7-1.7,7.2-3.9,10.2c-2.3,3.3-5.1,6.2-8.3,8.7
	c-3.7,3-7.6,5.6-11.8,7.9c-0.3,0.1-0.6,0.2-0.8,0.2c-0.6,0-1.2-0.3-1.6-0.8c-0.5-0.8-0.5-1.8,0.2-2.5c1.4-1.5,2.6-3.2,3.6-5.1
	c2-3.5,3.2-7.5,3.5-11.5c-3.1-1.2-6.8-4.8-8.5-6.5c-1.7-1.7-5.1-5.5-6.3-8.6c-4,0.3-7.9,1.5-11.3,3.5c-1.8,1-3.5,2.2-5,3.7
	c-0.4,0.4-0.8,0.6-1.4,0.6c-0.4,0-0.8-0.1-1.1-0.4c-0.8-0.6-1-1.6-0.6-2.4c2.2-4.3,4.8-8.3,7.7-12c2.4-3.2,5.3-6,8.5-8.4
	c2.9-2.2,6.4-3.6,10.1-4c0.7-1,1.4-1.9,2.2-2.8c4.4-5,9.8-9,15.8-11.7c7.5-3.4,16.4-5.1,26.3-5.1v0H86v2C86,27.5,84.3,36.5,81,44.2
	L81,44.2z M70.7,40.8c-0.1-5.3-4.5-9.5-9.7-9.4s-9.5,4.5-9.4,9.7c0.1,5.2,4.3,9.4,9.6,9.4C66.5,50.5,70.7,46.1,70.7,40.8L70.7,40.8z
	 M61.1,46.6c-3.2,0.1-5.9-2.5-5.9-5.7c-0.1-3.2,2.5-5.9,5.7-5.9c3.2-0.1,5.9,2.5,5.9,5.7c0,0,0,0.1,0,0.1
	C66.9,44,64.3,46.6,61.1,46.6C61.1,46.6,61.1,46.6,61.1,46.6L61.1,46.6z M30.9,66.9c1.2,0.1,2.3,0.6,3.1,1.6c1.2,1,1.7,2.5,1.4,3.9
	c-0.3,1.3-1.5,3.6-5.6,6.4c-3.8,2.5-8,4.7-12.3,6.3c1.7-4.7,4-9.2,6.9-13.4C26.8,68.5,29,66.9,30.9,66.9z"/>
<path class="st0" d="M81,141.1c-2.6,6.1-6.5,11.6-11.4,16.1c-0.9,0.8-1.8,1.5-2.7,2.3c-0.4,3.7-1.7,7.2-3.9,10.2
	c-2.3,3.3-5.1,6.2-8.3,8.7c-3.7,3-7.6,5.6-11.8,7.9c-0.3,0.1-0.6,0.2-0.8,0.2c-0.6,0-1.2-0.3-1.6-0.8c-0.5-0.8-0.5-1.8,0.2-2.5
	c1.4-1.5,2.6-3.2,3.6-5.1c2-3.5,3.2-7.5,3.5-11.5c-3.1-1.2-6.8-4.8-8.5-6.5c-1.7-1.7-5.1-5.5-6.3-8.6c-4,0.3-7.9,1.5-11.3,3.5
	c-1.8,1-3.5,2.2-5,3.7c-0.4,0.4-0.8,0.6-1.4,0.6c-0.4,0-0.8-0.1-1.1-0.4c-0.8-0.6-1-1.6-0.6-2.4c2.2-4.3,4.8-8.3,7.7-12
	c2.4-3.2,5.3-6,8.5-8.4c2.9-2.2,6.4-3.6,10.1-4c0.7-1,1.4-1.9,2.2-2.8c4.4-5,9.8-9,15.8-11.7c7.5-3.4,16.4-5.1,26.3-5.1v0H86v2
	C86,124.5,84.3,133.5,81,141.1L81,141.1z M70.7,137.7c-0.1-5.3-4.5-9.5-9.7-9.4s-9.5,4.5-9.4,9.7c0.1,5.2,4.3,9.4,9.6,9.4
	C66.5,147.4,70.7,143.1,70.7,137.7L70.7,137.7z M61.1,143.6c-3.2,0.1-5.9-2.5-5.9-5.7c-0.1-3.2,2.5-5.9,5.7-5.9
	c3.2-0.1,5.9,2.5,5.9,5.7c0,0,0,0.1,0,0.1C66.9,140.9,64.3,143.6,61.1,143.6C61.1,143.6,61.1,143.6,61.1,143.6L61.1,143.6z
	 M30.9,163.8c1.2,0.1,2.3,0.6,3.1,1.6c1.2,1,1.7,2.5,1.4,3.9c-0.3,1.3-1.5,3.6-5.6,6.4c-3.8,2.5-8,4.7-12.3,6.3
	c1.7-4.7,4-9.2,6.9-13.4C26.8,165.5,29,163.8,30.9,163.8z"/>
</svg>
